<svg xmlns="http://www.w3.org/2000/svg" viewBox="0 0 229.16 236.16"><g id="Layer_2" data-name="Layer 2"><g id="Layer_1-2" data-name="Layer 1"><path d="M120.37,132.69A20.73,20.73,0,1,1,141.1,112,20.76,20.76,0,0,1,120.37,132.69Z" transform="translate(-24.14 -38.93)" fill="#fff"/><path d="M120.37,93.73A18.23,18.23,0,1,1,102.13,112a18.25,18.25,0,0,1,18.24-18.23m0-5A23.23,23.23,0,1,0,143.6,112a23.24,23.24,0,0,0-23.23-23.23Z" transform="translate(-24.14 -38.93)"/><circle cx="140.61" cy="72.33" r="20.73" fill="#fff"/><path d="M164.75,93a18.23,18.23,0,1,1-18.24,18.23A18.25,18.25,0,0,1,164.75,93m0-5A23.23,23.23,0,1,0,188,111.26,23.24,23.24,0,0,0,164.75,88Z" transform="translate(-24.14 -38.93)"/><path d="M175,109.61a10.24,10.24,0,0,1-10.23,10.24" transform="translate(-24.14 -38.93)" fill="#fff" stroke="#000" stroke-linecap="round" stroke-miterlimit="10" stroke-width="5"/><path d="M130.6,109.61a10.24,10.24,0,0,1-10.23,10.24" transform="translate(-24.14 -38.93)" fill="#fff" stroke="#000" stroke-linecap="round" stroke-miterlimit="10" stroke-width="5"/><path d="M114.88,186.53c0-2.63-2.11-3.77-4.82-3.77h-1.67a1.74,1.74,0,0,1-1.75-1.67v-1.22a1.69,1.69,0,0,1,1.75-1.67h1.67c2.71,0,4.82-1.14,4.82-3.77,0-5-6.66-11-6.66-19,0-9.73,6.57-14.81,16-14.81H127a1.94,1.94,0,0,1,1.93,1.93v1a1.92,1.92,0,0,1-1.84,1.84h-2.63c-7.1,0-10.69,3.59-10.69,10.25,0,6.4,6.57,12.53,6.57,18.93a6.21,6.21,0,0,1-2.8,5.08.94.94,0,0,0-.09,1.58,6.51,6.51,0,0,1,2.89,5.26c0,6.4-6.57,12.53-6.57,18.93,0,6.66,3.59,10.25,10.69,10.25h2.63a1.94,1.94,0,0,1,1.84,1.93v.87a1.94,1.94,0,0,1-1.93,1.93h-2.72c-9.46,0-16-5.08-16-14.81C108.22,197.57,114.88,191.52,114.88,186.53Z" transform="translate(-24.14 -38.93)" fill="#231f20"/><path d="M93.84,195.2a2.35,2.35,0,0,1-3.33.18L66.94,174.26a2.17,2.17,0,0,1,0-3.24L90.51,149.9a2.35,2.35,0,0,1,3.33.17l.26.35a2.35,2.35,0,0,1-.17,3.33l-20.33,18a1.26,1.26,0,0,0,0,1.84l20.33,18a2.36,2.36,0,0,1,.17,3.33Z" transform="translate(-24.14 -38.93)" fill="#231f20"/><path d="M170.1,186.53c0,5,6.66,11,6.66,19,0,9.73-6.58,14.81-16,14.81H158a1.94,1.94,0,0,1-1.92-1.93v-.87a1.93,1.93,0,0,1,1.84-1.93h2.62c7.1,0,10.7-3.59,10.7-10.25,0-6.4-6.58-12.53-6.58-18.93a6.34,6.34,0,0,1,2.9-5.17,1,1,0,0,0-.09-1.67,6.31,6.31,0,0,1-2.81-5.08c0-6.4,6.58-12.53,6.58-18.93,0-6.66-3.6-10.25-10.7-10.25h-2.62a1.93,1.93,0,0,1-1.84-1.93v-.87a1.94,1.94,0,0,1,1.92-1.93h2.72c9.46,0,16,5.08,16,14.81,0,8-6.66,14-6.66,19,0,2.63,2.1,3.77,4.82,3.77h1.66a1.69,1.69,0,0,1,1.75,1.67v1.22a1.74,1.74,0,0,1-1.75,1.67h-1.66C172.2,182.76,170.1,183.9,170.1,186.53Z" transform="translate(-24.14 -38.93)" fill="#231f20"/><path d="M212.47,171a2.17,2.17,0,0,1,0,3.24L188.9,195.38a2.35,2.35,0,0,1-3.33-.18l-.26-.35a2.36,2.36,0,0,1,.17-3.33l20.24-18a1.26,1.26,0,0,0,0-1.84l-20.24-18a2.35,2.35,0,0,1-.17-3.33l.26-.35a2.35,2.35,0,0,1,3.33-.17Z" transform="translate(-24.14 -38.93)" fill="#231f20"/><path d="M196.72,44.12a2.32,2.32,0,0,1-2.33-2.34v-.52a2.32,2.32,0,0,1,2.33-2.33h54a2.79,2.79,0,0,1,2.6,2.59v231a2.79,2.79,0,0,1-2.6,2.59h-54a2.32,2.32,0,0,1-2.33-2.33v-.52a2.32,2.32,0,0,1,2.33-2.34h48.79a2.29,2.29,0,0,0,2.08-2.33V46.19a2.24,2.24,0,0,0-2.08-2.07Z" transform="translate(-24.14 -38.93)" fill="#231f20"/><path d="M26.73,275.09a2.78,2.78,0,0,1-2.59-2.59v-231a2.79,2.79,0,0,1,2.59-2.59h54a2.33,2.33,0,0,1,2.34,2.33v.52a2.33,2.33,0,0,1-2.34,2.34H31.92a2.23,2.23,0,0,0-2.07,2.07V267.57a2.28,2.28,0,0,0,2.07,2.33H80.71a2.33,2.33,0,0,1,2.34,2.34v.52a2.33,2.33,0,0,1-2.34,2.33Z" transform="translate(-24.14 -38.93)" fill="#231f20"/><path d="M127.43,240.4a2.41,2.41,0,0,1-2.54,2.45h-.61a2.32,2.32,0,0,1-2.1-2.45A22.86,22.86,0,0,1,126,229.88a1.91,1.91,0,0,1,2.46-.43l.17.08a1.85,1.85,0,0,1,.7,2.46A22.33,22.33,0,0,0,127.43,240.4Zm10.52,0a2.29,2.29,0,0,1-2.45,2.45h-.62a2.46,2.46,0,0,1-2.19-2.45,22.86,22.86,0,0,1,3.95-10.52,1.89,1.89,0,0,1,2.45-.43l.17.08A1.87,1.87,0,0,1,140,232,23.9,23.9,0,0,0,138,240.4Z" transform="translate(-24.14 -38.93)" fill="#231f20"/><path d="M152.6,134.09a1.81,1.81,0,0,1,.57,2.4l-9.39,15.87a1.12,1.12,0,0,1-2,0l-9.38-15.87a1.73,1.73,0,0,1,.56-2.4l.14-.07a1.82,1.82,0,0,1,2.4.57l6.63,10.65a.73.73,0,0,0,1.2,0l6.7-10.65a1.79,1.79,0,0,1,2.4-.57Z" transform="translate(-24.14 -38.93)" fill="#231f20"/><path d="M152.6,73.22a1.8,1.8,0,0,1,.56,2.4l-9.38,15.87a1.12,1.12,0,0,1-2,0l-9.39-15.87a1.74,1.74,0,0,1,.57-2.4l.14-.07a1.82,1.82,0,0,1,2.4.57l6.63,10.65a.73.73,0,0,0,1.2,0l6.7-10.65a1.78,1.78,0,0,1,2.4-.57Z" transform="translate(-24.14 -38.93)" fill="#231f20"/><path d="M148,232a1.85,1.85,0,0,1,.7-2.46l.17-.08a1.91,1.91,0,0,1,2.46.43,23,23,0,0,1,3.94,10.52,2.46,2.46,0,0,1-2.19,2.45h-.61A2.3,2.3,0,0,1,150,240.4,23.89,23.89,0,0,0,148,232Zm10.6,0a1.86,1.86,0,0,1,.7-2.46l.18-.08a1.89,1.89,0,0,1,2.45.43,22.76,22.76,0,0,1,3.86,10.52,2.33,2.33,0,0,1-2.11,2.45h-.61a2.41,2.41,0,0,1-2.54-2.45A22.15,22.15,0,0,0,158.59,232Z" transform="translate(-24.14 -38.93)" fill="#231f20"/></g></g></svg>