<svg xmlns="http://www.w3.org/2000/svg" viewBox="0 0 146.98 169.95"><g id="Layer_2" data-name="Layer 2"><g id="Layer_1-2" data-name="Layer 1"><path d="M54.15,20.82A18.23,18.23,0,1,1,35.92,39.05,18.25,18.25,0,0,1,54.15,20.82m0-5A23.23,23.23,0,1,0,77.38,39.05,23.23,23.23,0,0,0,54.15,15.82Z"/><path d="M98.53,20.13A18.23,18.23,0,1,1,80.3,38.36,18.25,18.25,0,0,1,98.53,20.13m0-5a23.23,23.23,0,1,0,23.23,23.23A23.23,23.23,0,0,0,98.53,15.13Z"/><path d="M108.76,36.71A10.23,10.23,0,0,1,98.53,46.94" fill="#fff" stroke="#000" stroke-linecap="round" stroke-miterlimit="10" stroke-width="5"/><path d="M64.38,36.71A10.23,10.23,0,0,1,54.15,46.94" fill="#fff" stroke="#000" stroke-linecap="round" stroke-miterlimit="10" stroke-width="5"/><path d="M48.66,113.62c0-2.63-2.1-3.77-4.82-3.77H42.18a1.74,1.74,0,0,1-1.75-1.66V107a1.68,1.68,0,0,1,1.75-1.66h1.66c2.72,0,4.82-1.14,4.82-3.77,0-5-6.66-11-6.66-19,0-9.72,6.57-14.81,16-14.81h2.72a1.94,1.94,0,0,1,1.92,1.93v1a1.9,1.9,0,0,1-1.84,1.84H58.21c-7.09,0-10.69,3.6-10.69,10.26,0,6.39,6.57,12.53,6.57,18.93a6.18,6.18,0,0,1-2.8,5.08,1,1,0,0,0-.09,1.58,6.46,6.46,0,0,1,2.89,5.25c0,6.4-6.57,12.53-6.57,18.93,0,6.66,3.6,10.25,10.69,10.25h2.63a1.93,1.93,0,0,1,1.84,1.93v.88a1.94,1.94,0,0,1-1.92,1.93H58c-9.47,0-16-5.09-16-14.81C42,124.66,48.66,118.62,48.66,113.62Z" fill="#231f20"/><path d="M27.63,122.3a2.35,2.35,0,0,1-3.33.17L.72,101.35a2.18,2.18,0,0,1,0-3.24L24.3,77a2.35,2.35,0,0,1,3.33.18l.26.35a2.35,2.35,0,0,1-.18,3.33l-20.33,18a1.28,1.28,0,0,0,0,1.84l20.33,18a2.36,2.36,0,0,1,.18,3.33Z" fill="#231f20"/><path d="M103.88,113.62c0,5,6.66,11,6.66,19,0,9.72-6.57,14.81-16,14.81H91.79a2,2,0,0,1-1.93-1.93v-.88a1.94,1.94,0,0,1,1.84-1.93h2.63c7.1,0,10.69-3.59,10.69-10.25,0-6.4-6.57-12.53-6.57-18.93a6.36,6.36,0,0,1,2.89-5.17,1,1,0,0,0-.09-1.66,6.34,6.34,0,0,1-2.8-5.08c0-6.4,6.57-12.54,6.57-18.93,0-6.66-3.59-10.26-10.69-10.26H91.7a1.93,1.93,0,0,1-1.84-1.92v-.88a2,2,0,0,1,1.93-1.93h2.72c9.46,0,16,5.09,16,14.81,0,8-6.66,14-6.66,19,0,2.63,2.1,3.77,4.82,3.77h1.67a1.68,1.68,0,0,1,1.75,1.66v1.23a1.74,1.74,0,0,1-1.75,1.66H108.7C106,109.85,103.88,111,103.88,113.62Z" fill="#231f20"/><path d="M146.26,98.11a2.18,2.18,0,0,1,0,3.24l-23.58,21.12a2.35,2.35,0,0,1-3.33-.17l-.26-.35a2.36,2.36,0,0,1,.18-3.33l20.24-18a1.26,1.26,0,0,0,0-1.84l-20.24-18a2.35,2.35,0,0,1-.18-3.33l.26-.35a2.35,2.35,0,0,1,3.33-.18Z" fill="#231f20"/><path d="M61.22,167.49A2.42,2.42,0,0,1,58.68,170h-.62a2.34,2.34,0,0,1-2.1-2.46A22.72,22.72,0,0,1,59.82,157a1.91,1.91,0,0,1,2.45-.44l.18.09a1.85,1.85,0,0,1,.7,2.45A22.19,22.19,0,0,0,61.22,167.49Zm10.52,0A2.31,2.31,0,0,1,69.28,170h-.61a2.47,2.47,0,0,1-2.19-2.46A22.92,22.92,0,0,1,70.42,157a1.91,1.91,0,0,1,2.45-.44l.18.09a1.84,1.84,0,0,1,.7,2.45A23.94,23.94,0,0,0,71.74,167.49Z" fill="#231f20"/><path d="M86.39,61.19a1.81,1.81,0,0,1,.56,2.4L77.57,79.46a1.14,1.14,0,0,1-2,0L66.21,63.59a1.74,1.74,0,0,1,.57-2.4l.14-.07a1.8,1.8,0,0,1,2.39.56L76,72.33a.71.71,0,0,0,1.19,0l6.71-10.65a1.77,1.77,0,0,1,2.39-.56Z" fill="#231f20"/><path d="M86.38.32A1.79,1.79,0,0,1,87,2.71L77.57,18.59a1.14,1.14,0,0,1-2,0L66.21,2.71A1.73,1.73,0,0,1,66.77.32l.14-.07a1.8,1.8,0,0,1,2.4.56l6.63,10.65a.73.73,0,0,0,1.2,0L83.84.81a1.78,1.78,0,0,1,2.4-.56Z" fill="#231f20"/><path d="M81.77,159.08a1.86,1.86,0,0,1,.7-2.45l.18-.09a1.91,1.91,0,0,1,2.45.44,22.82,22.82,0,0,1,4,10.51A2.47,2.47,0,0,1,86.86,170h-.62a2.3,2.3,0,0,1-2.45-2.46A24.18,24.18,0,0,0,81.77,159.08Zm10.61,0a1.84,1.84,0,0,1,.7-2.45l.17-.09a1.92,1.92,0,0,1,2.46.44,22.82,22.82,0,0,1,3.85,10.51,2.33,2.33,0,0,1-2.1,2.46h-.61a2.43,2.43,0,0,1-2.55-2.46A22.17,22.17,0,0,0,92.38,159.08Z" fill="#231f20"/></g></g></svg>